<svg width="28" height="30" viewBox="0 0 28 30" fill="none" xmlns="http://www.w3.org/2000/svg">
<circle cx="24" cy="4" r="4" fill="#D6331D"/>
<path d="M18 14C18 12.4087 17.3679 10.8826 16.2426 9.75736C15.1174 8.63214 13.5913 8 12 8C10.4087 8 8.88258 8.63214 7.75736 9.75736C6.63214 10.8826 6 12.4087 6 14C6 21 3 23 3 23H21C21 23 18 21 18 14Z" stroke="#2D0A06" stroke-width="2" stroke-linecap="round" stroke-linejoin="round"/>
<path d="M13.73 27C13.5542 27.3031 13.3019 27.5547 12.9982 27.7295C12.6946 27.9044 12.3504 27.9965 12 27.9965C11.6496 27.9965 11.3054 27.9044 11.0018 27.7295C10.6982 27.5547 10.4458 27.3031 10.27 27" stroke="#2D0A06" stroke-width="2" stroke-linecap="round" stroke-linejoin="round"/>
</svg>
