<svg width="52" height="52" viewBox="0 0 52 52" fill="none" xmlns="http://www.w3.org/2000/svg">
<path d="M9.22772 35.9528C6.80498 31.8686 5.95651 27.0405 6.84165 22.375C7.72678 17.7095 10.2846 13.5277 14.0349 10.6146C17.7851 7.70163 22.4698 6.25785 27.2092 6.55443C31.9487 6.85101 36.4168 8.86755 39.7746 12.2254C43.1325 15.5832 45.149 20.0513 45.4456 24.7908C45.7422 29.5302 44.2985 34.2149 41.3855 37.9651C38.4725 41.7154 34.2906 44.2733 29.6252 45.1584C24.9597 46.0436 20.1316 45.1951 16.0474 42.7724L16.0474 42.7722L9.31251 44.6965C9.03386 44.7761 8.73899 44.7797 8.45846 44.7071C8.17793 44.6344 7.92194 44.488 7.71702 44.2831C7.51211 44.0781 7.36572 43.8221 7.29303 43.5416C7.22033 43.2611 7.22398 42.9662 7.3036 42.6876L9.22787 35.9526L9.22772 35.9528Z" stroke="#D6331D" stroke-width="2" stroke-linecap="round" stroke-linejoin="round"/>
<path d="M19.5 22.75H32.5" stroke="#D6331D" stroke-width="2" stroke-linecap="round" stroke-linejoin="round"/>
<path d="M19.5 29.25H32.5" stroke="#D6331D" stroke-width="2" stroke-linecap="round" stroke-linejoin="round"/>
</svg>
