<svg width="12" height="12" viewBox="0 0 12 12" fill="none" xmlns="http://www.w3.org/2000/svg">
<path d="M3.62586 9.46295L2.11634 10.7319C2.06167 10.7779 1.99502 10.8073 1.92423 10.8166C1.85343 10.826 1.78144 10.8149 1.7167 10.7848C1.65197 10.7546 1.59719 10.7066 1.5588 10.6464C1.52042 10.5862 1.50003 10.5163 1.50003 10.4449V3C1.50003 2.90054 1.53954 2.80516 1.60987 2.73484C1.68019 2.66451 1.77557 2.625 1.87503 2.625H10.125C10.2245 2.625 10.3199 2.66451 10.3902 2.73484C10.4605 2.80516 10.5 2.90054 10.5 3V9C10.5 9.09946 10.4605 9.19484 10.3902 9.26517C10.3199 9.33549 10.2245 9.375 10.125 9.375H3.86716C3.77888 9.375 3.69343 9.40614 3.62586 9.46295Z" stroke="#FEF0FE" stroke-linecap="round" stroke-linejoin="round"/>
</svg>
