<svg width="24" height="24" viewBox="0 0 24 24" fill="none" xmlns="http://www.w3.org/2000/svg">
<path d="M4.25892 16.5936C3.14073 14.7086 2.74913 12.4802 3.15765 10.3269C3.56618 8.17365 4.74672 6.24356 6.47761 4.89909C8.2085 3.55462 10.3707 2.88826 12.5581 3.02514C14.7455 3.16202 16.8077 4.09273 18.3575 5.6425C19.9073 7.19226 20.838 9.25448 20.9749 11.4419C21.1118 13.6293 20.4454 15.7915 19.101 17.5224C17.7565 19.2533 15.8264 20.4338 13.6731 20.8424C11.5198 21.2509 9.29146 20.8593 7.40646 19.7411L7.40648 19.741L4.29805 20.6292C4.16944 20.6659 4.03335 20.6676 3.90387 20.634C3.7744 20.6005 3.65625 20.5329 3.56167 20.4384C3.4671 20.3438 3.39953 20.2256 3.36598 20.0961C3.33243 19.9667 3.33412 19.8306 3.37086 19.702L4.25898 16.5935L4.25892 16.5936Z" stroke="#666666" stroke-width="1.5" stroke-linecap="round" stroke-linejoin="round"/>
<path d="M9 10.5H15" stroke="#666666" stroke-width="1.5" stroke-linecap="round" stroke-linejoin="round"/>
<path d="M9 13.5H15" stroke="#666666" stroke-width="1.5" stroke-linecap="round" stroke-linejoin="round"/>
</svg>
