<svg width="52" height="52" viewBox="0 0 52 52" fill="none" xmlns="http://www.w3.org/2000/svg">
<path d="M19.5001 42.2468H14.6251C13.0119 42.2452 11.4175 41.9006 9.94779 41.2357C8.47804 40.5708 7.16651 39.601 6.10026 38.3905C5.034 37.1799 4.23741 35.7565 3.76336 34.2146C3.28931 32.6727 3.14864 31.0475 3.35069 29.4471C3.55273 27.8467 4.09287 26.3075 4.93526 24.9318C5.77765 23.5561 6.90301 22.3752 8.23666 21.4677C9.5703 20.5602 11.0817 19.9467 12.6706 19.6679C14.2595 19.3892 15.8895 19.4516 17.4524 19.851" stroke="#D6331D" stroke-width="2" stroke-linecap="round" stroke-linejoin="round"/>
<path d="M16.25 25.9968C16.2503 23.4221 16.8623 20.8842 18.0358 18.5925C19.2092 16.3007 20.9104 14.3205 22.9993 12.8152C25.0881 11.3098 27.5047 10.3223 30.05 9.93416C32.5954 9.54598 35.1965 9.76817 37.6391 10.5824C40.0817 11.3967 42.2958 12.7797 44.0991 14.6175C45.9023 16.4554 47.243 18.6954 48.0108 21.153C48.7785 23.6106 48.9513 26.2155 48.5148 28.753C48.0784 31.2904 47.0452 33.6879 45.5005 35.7478" stroke="#D6331D" stroke-width="2" stroke-linecap="round" stroke-linejoin="round"/>
<path d="M23.9807 32.8912L30.875 25.9967L37.7692 32.8912" stroke="#D6331D" stroke-width="2" stroke-linecap="round" stroke-linejoin="round"/>
<path d="M30.875 42.2468V25.9968" stroke="#D6331D" stroke-width="2" stroke-linecap="round" stroke-linejoin="round"/>
</svg>
