<svg width="88" height="88" viewBox="0 0 88 88" fill="none" xmlns="http://www.w3.org/2000/svg">
<path d="M33.0001 71.4946H24.7501C22.0201 71.492 19.322 70.9087 16.8347 69.7835C14.3474 68.6584 12.1279 67.017 10.3235 64.9685C8.51905 62.9199 7.17098 60.511 6.36874 57.9016C5.56649 55.2922 5.32844 52.542 5.67036 49.8336C6.01228 47.1251 6.92637 44.5204 8.35195 42.1922C9.77753 39.8641 11.682 37.8658 13.9389 36.33C16.1959 34.7941 18.7537 33.7559 21.4425 33.2842C24.1314 32.8125 26.8899 32.9181 29.5348 33.594" stroke="#D6331D" stroke-width="2" stroke-linecap="round" stroke-linejoin="round"/>
<path d="M27.5 43.9949C27.5004 39.6376 28.5362 35.3428 30.5221 31.4644C32.5079 27.586 35.3869 24.2349 38.9218 21.6874C42.4568 19.1399 46.5465 17.4688 50.8539 16.8119C55.1614 16.155 59.5633 16.531 63.6969 17.909C67.8305 19.287 71.5775 21.6275 74.6292 24.7376C77.6808 27.8478 79.9498 31.6386 81.249 35.7976C82.5483 39.9567 82.8406 44.3649 82.102 48.6591C81.3634 52.9533 79.615 57.0105 77.0008 60.4965" stroke="#D6331D" stroke-width="2" stroke-linecap="round" stroke-linejoin="round"/>
<path d="M40.5827 55.6622L52.2499 43.9946L63.9171 55.6622" stroke="#D6331D" stroke-width="2" stroke-linecap="round" stroke-linejoin="round"/>
<path d="M52.25 71.4946V43.9946" stroke="#D6331D" stroke-width="2" stroke-linecap="round" stroke-linejoin="round"/>
</svg>
