<svg width="48" height="40" viewBox="0 0 48 40" fill="none" xmlns="http://www.w3.org/2000/svg">
<path d="M12.24 11.2H14.472V28H12.672L4.032 15.448V28H1.8V11.2H3.6L12.24 23.728V11.2ZM18.8336 22.96C19.0416 24.032 19.5296 24.864 20.2976 25.456C21.0816 26.048 22.0416 26.344 23.1776 26.344C24.7616 26.344 25.9136 25.76 26.6336 24.592L28.4096 25.6C27.2416 27.408 25.4816 28.312 23.1296 28.312C21.2256 28.312 19.6736 27.72 18.4736 26.536C17.2896 25.336 16.6976 23.824 16.6976 22C16.6976 20.192 17.2816 18.688 18.4496 17.488C19.6176 16.288 21.1296 15.688 22.9856 15.688C24.7456 15.688 26.1776 16.312 27.2816 17.56C28.4016 18.792 28.9616 20.28 28.9616 22.024C28.9616 22.328 28.9376 22.64 28.8896 22.96H18.8336ZM22.9856 17.656C21.8656 17.656 20.9376 17.976 20.2016 18.616C19.4656 19.24 19.0096 20.08 18.8336 21.136H26.8496C26.6736 20 26.2256 19.136 25.5056 18.544C24.7856 17.952 23.9456 17.656 22.9856 17.656ZM44.5491 16H46.7331L43.0131 28H40.8771L38.0691 19.12L35.2611 28H33.1251L29.4051 16H31.5891L34.2291 25.12L37.0611 16H39.0771L41.9091 25.144L44.5491 16Z" fill="#E0372F"/>
</svg>
