<svg width="229" height="258" viewBox="0 0 229 258" fill="none" xmlns="http://www.w3.org/2000/svg">
<g clip-path="url(#clip0)">
<path d="M60.7589 167.253C62.2392 166.589 63.729 165.924 65.2093 165.269C66.4589 164.71 65.3727 162.861 64.1328 163.42C62.3737 164.2 60.6243 164.99 58.8652 165.77C58.3077 165.394 57.7406 165.067 57.1831 164.807C52.2616 162.495 44.8698 164.73 42.7071 170.027C40.5251 175.373 45.7541 180.796 49.897 183.31C49.9739 183.358 50.0412 183.387 50.1181 183.416C55.2222 185.968 63.0177 186.594 65.5361 180.122C67.2375 175.768 64.3923 170.538 60.7589 167.253ZM58.5577 183.069C55.9047 183.589 53.319 182.674 50.9736 181.46C48.2533 179.813 45.312 177.165 44.5718 173.938C43.2838 168.342 50.8871 164.961 55.3568 166.357C59.0671 167.513 62.3353 171.568 63.4695 175.2C64.6422 178.985 62.3353 182.337 58.5577 183.069Z" fill="#999999"/>
<path d="M52.0021 170.624C51.1659 172.011 50.32 173.408 49.4837 174.795C48.7724 175.98 50.618 177.059 51.3293 175.874C52.1655 174.487 53.0114 173.09 53.8477 171.703C54.559 170.528 52.7134 169.449 52.0021 170.624Z" fill="#999999"/>
<path d="M55.8759 173.158C55.5875 174.526 55.2895 175.903 55.0012 177.271C54.7128 178.619 56.7794 179.187 57.0582 177.839C57.3465 176.471 57.6445 175.094 57.9329 173.726C58.2213 172.387 56.1642 171.809 55.8759 173.158Z" fill="#999999"/>
<path d="M56.789 154.346C58.7403 151.832 62.8062 153.344 62.0565 156.648C61.7489 157.987 63.8155 158.565 64.1135 157.216C64.6326 154.924 63.6713 152.429 61.5086 151.341C59.3939 150.281 56.7025 150.985 55.2702 152.824C54.4436 153.913 55.9527 155.435 56.789 154.346Z" fill="#999999"/>
<path d="M73.7546 161.378C72.4954 161.898 73.0529 163.969 74.3217 163.439C77.4649 162.139 81.0311 164.402 80.5024 167.985C80.3006 169.334 82.3576 169.912 82.5594 168.554C83.2996 163.555 78.6088 159.374 73.7546 161.378Z" fill="#999999"/>
<path d="M146.26 179.542C145.731 178.29 143.665 178.839 144.203 180.11C146.27 185.023 142.482 191.274 136.725 189.396C135.456 188.982 134.37 188.067 133.629 186.92C136.83 186.15 139.647 184.021 138.551 180.419C137.926 178.367 135.744 177.413 133.774 178.117C131.784 178.829 130.755 180.92 130.554 182.904C130.477 183.703 130.525 184.474 130.669 185.215C130.092 185.148 129.525 185.032 128.958 184.859C128.9 184.84 128.852 184.84 128.804 184.83C129.256 180.727 129.016 176.45 128.045 172.145C124.709 157.398 113.348 145.936 100.265 139.155C92.4506 135.1 83.3574 132.2 74.4949 132.297C72.0919 128.174 69.1409 124.495 65.6132 121.278C65.1422 120.844 64.2483 120.844 63.9311 121.499C61.6241 126.267 59.8555 131.208 58.6539 136.371C58.2118 136.622 57.7696 136.882 57.3274 137.161C45.3986 144.703 38.7085 159.411 37.4397 173.118C36.9206 178.791 37.7857 184.06 39.7082 188.837C36.0459 192.439 32.4029 196.09 29.2501 200.155C28.7695 200.771 28.9713 202.12 30.0094 201.985C32.845 201.619 35.6807 201.243 38.5067 200.877C37.9492 203.507 37.382 206.136 36.8245 208.766C36.5938 209.864 37.7857 210.471 38.6124 209.806C41.9094 207.138 44.7354 203.959 47.9555 201.205C51.8485 205.163 56.5777 208.458 61.7491 210.972C60.6244 214.796 59.3941 218.581 58.0484 222.337C57.7888 223.069 58.6251 223.946 59.3652 223.657C61.3838 222.867 63.3928 222.068 65.4114 221.278C65.6036 223.416 65.9496 225.478 66.5071 227.597C66.7475 228.502 67.9874 228.627 68.4584 227.857C70.8999 223.83 73.2261 219.746 75.4658 215.605C80.9736 216.76 86.5391 217.319 92.1622 216.992C91.2298 220.006 90.2398 223.002 89.1632 225.978C88.9037 226.71 89.74 227.587 90.4801 227.298C92.4987 226.508 94.5076 225.709 96.5262 224.919C96.7184 227.057 97.0645 229.118 97.622 231.237C97.8623 232.153 99.1023 232.258 99.5733 231.498C103.764 224.717 108.368 218.196 112.021 211.106C121.134 205.501 126.843 196.812 128.525 186.978C129.352 187.209 130.342 187.306 131.38 187.257C132.909 190.292 136.311 192.256 139.916 191.707C145.664 190.821 148.442 184.715 146.26 179.542ZM93.3445 140.282C93.4983 140.407 93.6521 140.523 93.8059 140.648C93.6041 140.657 93.4118 140.667 93.21 140.686C93.3253 140.59 93.4022 140.436 93.3445 140.282ZM94.8825 140.629C94.8633 140.59 94.8344 140.552 94.796 140.523C94.3346 140.147 93.8636 139.781 93.4022 139.405C93.1235 139.184 92.7486 139.444 92.7678 139.704C92.6428 139.588 92.5275 139.473 92.4025 139.367C92.0565 139.049 91.5471 139.559 91.8931 139.877C92.1815 140.147 92.4602 140.407 92.7486 140.677C92.7678 140.696 92.787 140.706 92.8159 140.715C92.7005 140.725 92.5852 140.725 92.4602 140.735C92.441 140.677 92.4122 140.629 92.3545 140.58C91.8931 140.205 91.4221 139.839 90.9607 139.463C90.903 139.415 90.8454 139.396 90.7877 139.386C92.2391 139.213 93.6906 139.039 95.142 138.856C95.3343 138.943 95.5265 139.02 95.7188 139.097C95.5169 139.203 95.4112 139.463 95.6419 139.646C95.9879 139.925 96.3436 140.205 96.6896 140.484C97.0549 140.773 97.5643 140.263 97.1991 139.974C97.0164 139.829 96.8242 139.675 96.6415 139.531C97.6028 139.974 98.5448 140.446 99.4868 140.937C97.9392 140.715 96.4109 140.619 94.8825 140.629ZM91.1049 140.889C90.5185 140.446 89.9322 140.002 89.3458 139.559C89.7496 139.511 90.1533 139.463 90.5474 139.415C90.3263 139.511 90.1917 139.791 90.4224 139.983C90.7781 140.272 91.1433 140.561 91.499 140.85C91.3836 140.86 91.2395 140.869 91.1049 140.889ZM65.2095 123.869C66.9012 125.516 68.4392 127.269 69.8426 129.137C68.8814 129.08 67.9298 129.176 66.9878 129.426C66.536 129.552 66.7282 130.255 67.18 130.13C68.247 129.841 69.3235 129.773 70.4097 129.927C70.9865 130.736 71.544 131.565 72.0726 132.422C68.3431 132.701 64.6808 133.549 61.2012 135.1C62.2105 131.237 63.537 127.5 65.2095 123.869ZM39.862 198.556C37.4205 198.874 34.979 199.192 32.5375 199.509C33.9312 197.862 35.3827 196.273 36.8822 194.722C40.16 195.994 42.7937 198.354 44.447 201.474C42.8033 203.016 41.2173 204.614 39.564 206.146C40.0062 204.065 40.4483 201.995 40.8905 199.914C41.0251 199.317 40.6021 198.46 39.862 198.556ZM44.9949 200.974C43.3128 197.862 40.6694 195.502 37.4301 194.154C38.4874 193.075 39.5544 191.996 40.631 190.937C42.1497 194.087 44.1394 197.005 46.4944 199.654C45.985 200.087 45.4852 200.521 44.9949 200.974ZM67.4203 219.756C67.3915 219.13 66.7475 218.456 66.065 218.725C64.3252 219.409 62.5757 220.103 60.8359 220.787C61.5472 218.735 62.2393 216.674 62.8833 214.593C66.0265 215.239 68.8429 216.655 71.2268 218.822C70.1694 220.7 69.0832 222.578 67.9778 224.437C67.6991 222.896 67.5068 221.355 67.4203 219.756ZM98.5256 223.397C98.4967 222.771 97.8527 222.097 97.1702 222.366C95.4304 223.05 93.681 223.744 91.9412 224.428C92.6236 222.472 93.2773 220.507 93.8924 218.533C97.3144 218.658 100.458 219.795 103.139 221.885C101.794 223.985 100.438 226.075 99.1023 228.184C98.8139 226.604 98.6121 225.025 98.5256 223.397ZM110.877 209.276C110.647 209.334 110.435 209.498 110.281 209.777C108.253 213.736 105.927 217.512 103.534 221.259C100.794 219.149 97.5932 217.974 94.1231 217.81C95.1516 214.478 96.1033 211.116 96.9684 207.726C97.3048 206.387 95.2478 205.818 94.9113 207.157C94.2577 209.729 93.5464 212.272 92.7966 214.805C87.3177 215.181 81.8964 214.718 76.5135 213.63C77.5516 211.675 78.5705 209.71 79.5702 207.726C80.1854 206.493 78.3398 205.414 77.7246 206.647C75.7734 210.538 73.7259 214.381 71.6016 218.176C69.1697 216.009 66.3053 214.555 63.114 213.9C63.4312 212.859 63.7388 211.81 64.0368 210.76C64.0849 210.654 64.1233 210.538 64.1329 210.413C64.7385 208.313 65.3248 206.213 65.8535 204.094C66.1899 202.755 64.1329 202.187 63.7965 203.526C63.3447 205.327 62.8545 207.109 62.3547 208.891C46.0715 200.79 36.392 185.697 40.5637 167.146C44.399 150.087 56.3662 134.214 75.2447 134.406C81.4061 134.464 87.7502 135.87 93.7771 138.298C92.095 138.5 90.4224 138.702 88.7403 138.904C88.5 138.933 88.3846 139.145 88.4039 139.338C88.3366 139.492 88.3462 139.694 88.5192 139.819C89.2786 140.397 90.0379 140.966 90.8069 141.544C90.8934 141.611 90.9895 141.621 91.0664 141.601C91.0857 141.601 91.0953 141.601 91.1145 141.601C94.623 141.12 98.0738 141.274 101.486 142.035C103.716 143.326 105.869 144.751 107.907 146.302C103.101 145.473 98.3237 145.541 93.5272 146.543C92.1815 146.822 92.7486 148.893 94.0943 148.604C98.266 147.737 102.419 147.612 106.6 148.238C104.639 151.59 102.361 154.701 99.7175 157.571C98.7851 158.583 100.294 160.105 101.227 159.084C104.351 155.703 107.013 152.014 109.234 147.978C109.32 147.814 109.359 147.621 109.359 147.429C113.386 150.684 116.923 154.422 119.711 158.477C131.226 175.275 128.795 198.286 110.877 209.276ZM133.985 182.846C135.321 184.079 135.081 184.792 133.264 185.013C133.12 185.061 132.976 185.09 132.822 185.129C132.668 184.551 132.591 183.963 132.63 183.376C132.793 180.92 133.245 180.746 133.985 182.846Z" fill="#999999"/>
<path d="M102.217 149.386C99.7462 149.145 97.3815 149.655 95.2284 150.879C95.1707 150.917 95.1323 150.956 95.1034 151.004C94.8824 151.014 94.6901 151.177 94.7958 151.437C95.4014 152.901 96.2089 154.231 97.2278 155.435C97.1509 155.762 97.5642 156.109 97.8141 155.791C99.3713 153.865 100.919 151.938 102.476 150.002C102.678 149.752 102.543 149.415 102.217 149.386ZM101.496 150.07C100.217 151.659 98.9387 153.239 97.6603 154.828C96.824 153.816 96.1416 152.709 95.6129 151.505C97.4488 150.455 99.4193 149.993 101.496 150.07Z" fill="#999999"/>
<path d="M95.6513 139.869C95.3533 139.667 95.0553 139.464 94.7574 139.262C94.3729 139.002 94.0076 139.628 94.3921 139.888C94.6901 140.091 94.988 140.293 95.286 140.495C95.6801 140.765 96.0454 140.129 95.6513 139.869Z" fill="#999999"/>
<path d="M62.4987 206.417C56.6064 203.161 51.9444 198.374 48.8589 192.373C48.6474 191.959 48.013 192.325 48.2341 192.739C51.3677 198.827 56.145 203.73 62.1334 207.043C62.5467 207.274 62.912 206.648 62.4987 206.417Z" fill="#999999"/>
<path d="M58.6538 199.925C57.6829 199.039 56.7217 198.143 55.7509 197.257C55.4048 196.939 54.8954 197.45 55.2414 197.768C56.2123 198.654 57.1735 199.55 58.1443 200.436C58.4808 200.754 58.9998 200.243 58.6538 199.925Z" fill="#999999"/>
<path d="M118.98 163.516C121.97 168.274 123.094 173.649 122.21 179.206C122.133 179.669 122.835 179.861 122.912 179.399C123.825 173.649 122.7 168.081 119.605 163.15C119.355 162.755 118.73 163.121 118.98 163.516Z" fill="#999999"/>
<path d="M121.989 184.061C122.172 185.024 122.085 185.968 121.758 186.893C121.604 187.336 122.306 187.529 122.46 187.085C122.835 186.036 122.902 184.966 122.691 183.868C122.604 183.406 121.902 183.599 121.989 184.061Z" fill="#999999"/>
<path d="M120.691 192.913C120.461 193.346 120.239 193.77 120.009 194.204C119.788 194.618 120.413 194.984 120.634 194.57C120.864 194.136 121.085 193.712 121.316 193.279C121.537 192.865 120.912 192.499 120.691 192.913Z" fill="#999999"/>
<path d="M114.924 175.806C115.453 178.609 115.424 181.393 114.866 184.186C114.77 184.639 115.472 184.841 115.568 184.379C116.154 181.46 116.173 178.542 115.626 175.614C115.539 175.151 114.847 175.344 114.924 175.806Z" fill="#999999"/>
<path d="M113.444 180.247C113.328 179.794 112.627 179.987 112.742 180.44C112.896 181.017 113.04 181.595 113.194 182.173C113.309 182.626 114.011 182.433 113.895 181.981C113.742 181.403 113.597 180.825 113.444 180.247Z" fill="#999999"/>
<path d="M105.898 210.646C105.11 212.457 104.312 214.267 103.524 216.078C103.341 216.502 103.966 216.878 104.149 216.444C104.937 214.633 105.735 212.823 106.523 211.012C106.715 210.588 106.09 210.212 105.898 210.646Z" fill="#999999"/>
<path d="M107.051 207.91C107.023 208.045 106.994 208.17 106.965 208.305C106.869 208.758 107.571 208.96 107.667 208.498C107.695 208.363 107.724 208.238 107.753 208.103C107.849 207.64 107.157 207.448 107.051 207.91Z" fill="#999999"/>
<path d="M73.3509 210.039C72.7261 211.06 72.0917 212.09 71.4669 213.111C71.2266 213.516 71.8514 213.882 72.0917 213.477C72.7165 212.456 73.3509 211.426 73.9757 210.405C74.2256 210 73.6008 209.634 73.3509 210.039Z" fill="#999999"/>
<path d="M74.8408 207.024C74.3698 207.024 74.3698 207.756 74.8408 207.756C75.3118 207.746 75.3118 207.024 74.8408 207.024Z" fill="#999999"/>
<path d="M68.1796 160.125C67.7278 160.029 67.2664 159.933 66.8146 159.836C66.3628 159.74 66.161 160.443 66.6224 160.54C67.0741 160.636 67.5355 160.732 67.9873 160.829C68.4391 160.925 68.6313 160.222 68.1796 160.125Z" fill="#999999"/>
<path d="M68.7755 157.804C68.3045 157.804 68.3045 158.536 68.7755 158.536C69.2465 158.536 69.2465 157.804 68.7755 157.804Z" fill="#999999"/>
</g>
<g clip-path="url(#clip1)">
<path d="M137.192 142.624C137.376 142.979 137.676 143.119 137.986 143.115C138.307 143.161 138.64 143.036 138.849 142.656C148.652 124.704 165.662 115.478 185.895 115.291C185.931 115.291 185.964 115.283 186 115.283C186.388 115.313 186.757 115.117 186.837 114.608C188.239 106.352 189.089 98.0167 190.485 89.7707C190.528 89.5114 190.475 89.2934 190.376 89.1044C190.243 88.8168 189.983 88.587 189.597 88.5301C166.017 85.3486 144.027 91.9685 127.685 109.613C127.466 109.844 127.4 110.118 127.426 110.369C127.421 110.423 127.407 110.471 127.421 110.53C129.079 121.63 132.025 132.629 137.192 142.624ZM188.474 90.3229C187.221 97.9922 186.374 105.723 185.103 113.388C165.151 113.817 148.188 122.836 138.079 140.116C133.565 130.868 130.923 120.79 129.37 110.633C145.116 93.8529 165.925 87.5562 188.474 90.3229Z" fill="#999999"/>
<path d="M145.756 109.58C145.76 109.596 145.747 109.617 145.754 109.642C148.53 122.273 167.584 116.777 168.715 105.735C169.358 99.458 163.639 94.8733 157.659 95.7706C151.492 96.6961 145.315 103.149 145.739 109.548C145.744 109.565 145.754 109.571 145.756 109.58ZM155.208 97.2829C162.734 94.1077 170.658 100.9 167.075 108.72C163.517 116.498 148.875 120.306 146.465 109.505C146.149 104.207 150.538 99.256 155.208 97.2829Z" fill="#999999"/>
<path d="M179.556 99.1757C177.389 98.9044 175.196 100.167 174.499 102.291C173.685 104.773 175.82 106.695 178.203 106.648C178.222 106.652 178.236 106.639 178.261 106.633C178.278 106.629 178.289 106.636 178.297 106.634C180.238 106.374 182.614 105.066 182.931 102.946C183.246 100.853 181.478 99.4182 179.556 99.1757ZM181.905 103.756C181.204 104.992 179.539 105.727 178.186 105.923C175.578 105.955 174.158 103.44 175.842 101.36C176.891 100.065 178.524 99.5605 180.128 100.031C181.77 100.511 182.838 102.125 181.905 103.756Z" fill="#999999"/>
<path d="M135.744 119.543C135.841 121.287 136.607 123.046 138.596 123.059C140.391 123.075 142.124 121.746 142.97 120.234C144.15 118.126 143.081 115.668 140.66 115.228C138.071 114.757 135.812 117.057 135.744 119.543ZM141.342 116.207C143.321 117.199 142.943 119.432 141.657 120.812C140.898 121.627 139.762 122.349 138.608 122.345C137.037 122.337 136.533 120.924 136.461 119.573C136.524 117.213 139.01 115.043 141.342 116.207Z" fill="#999999"/>
<path d="M170.45 93.4264C175.247 92.4085 180.068 92.0688 184.956 92.4057C185.415 92.4358 185.436 91.7201 184.976 91.69C180.018 91.3527 175.145 91.6962 170.281 92.7304C169.833 92.8218 170.003 93.5177 170.45 93.4264Z" fill="#999999"/>
<path d="M182.194 94.2069C179.868 93.7964 177.582 93.9095 175.315 94.5773C174.877 94.7106 175.039 95.4086 175.484 95.2733C177.617 94.6381 179.791 94.4992 181.987 94.8879C182.436 94.9829 182.649 94.2914 182.194 94.2069Z" fill="#999999"/>
<path d="M133.256 110.058C136.67 106.641 140.501 103.807 144.774 101.549C145.183 101.333 144.833 100.699 144.427 100.923C140.099 103.212 136.215 106.086 132.759 109.549C132.429 109.869 132.928 110.387 133.256 110.058Z" fill="#999999"/>
<path d="M136.786 109.918C137.957 108.504 139.351 107.383 140.983 106.55C141.394 106.343 141.044 105.709 140.636 105.924C138.947 106.779 137.492 107.942 136.287 109.4C136.001 109.754 136.491 110.274 136.786 109.918Z" fill="#999999"/>
<path d="M148.639 122.575C144.966 125.442 141.836 128.825 139.261 132.704C139 133.087 139.623 133.46 139.876 133.078C142.419 129.252 145.518 125.921 149.138 123.093C149.503 122.809 149.006 122.299 148.639 122.575Z" fill="#999999"/>
<path d="M172.611 113.571C175.797 112.129 179.121 111.434 182.615 111.471C183.076 111.474 183.097 110.758 182.635 110.755C179.01 110.724 175.56 111.449 172.255 112.947C171.846 113.127 172.196 113.761 172.611 113.571Z" fill="#999999"/>
</g>
<g clip-path="url(#clip2)">
<path d="M113.034 68.4896C103.463 60.1006 88.4481 61.5333 81.5392 71.4153C81.453 71.4844 81.3755 71.5793 81.3066 71.7001C81.2204 71.8469 81.1429 72.0022 81.0567 72.1576C80.6002 72.8825 80.1867 73.642 79.8249 74.4447C77.8177 78.2421 76.0258 82.2985 76 86.5965C75.9655 93.4751 79.7559 100.026 85.7517 103.374C97.6398 110.02 113.973 103.935 118.125 90.7651C118.143 90.7219 118.143 90.6788 118.151 90.6356C121.261 83.2996 118.651 74.0304 113.034 68.4896ZM103.463 101.476C105.858 101.079 108.184 100.293 110.338 99.0763C107.883 101.148 104.954 102.641 101.835 103.461C102.352 102.865 102.869 102.261 103.386 101.665C103.446 101.605 103.463 101.545 103.463 101.476ZM91.4804 65.9176C98.3118 63.4579 106.246 65.0805 111.682 69.8446C119.211 77.2755 120.021 90.5579 110.467 96.6684C100.715 102.908 85.7775 100.285 81.2204 88.8922C79.3424 84.2058 79.7387 79.062 81.8321 74.7467C82.1077 74.2203 82.4006 73.6938 82.6763 73.1846C84.6749 69.9136 87.6986 67.2726 91.4804 65.9176ZM78.7567 91.9647C79.084 91.5073 79.4027 91.0499 79.7301 90.6011C80.0488 91.2311 80.4107 91.8439 80.7983 92.4308C80.3504 92.8796 79.911 93.3197 79.4631 93.7685C79.2046 93.173 78.9548 92.5775 78.7567 91.9647ZM78.033 84.8531C78.2312 86.6655 78.705 88.3658 79.4114 89.9279C79.1185 90.3422 78.8256 90.7564 78.5327 91.1621C77.9727 89.1166 77.7918 86.9762 78.033 84.8531ZM85.6139 101.061C83.0984 99.4043 81.0912 97.0654 79.7559 94.3985C80.2298 93.9239 80.7036 93.4492 81.1774 92.9745C84.8386 98.0234 91.1272 101.182 97.6657 101.717C96.9248 102.537 96.1926 103.357 95.4517 104.177C94.6161 104.142 93.7891 104.056 92.9621 103.918C93.5221 103.271 94.0734 102.623 94.6247 101.968C94.8918 101.648 94.4352 101.191 94.1681 101.51C93.5221 102.27 92.8673 103.029 92.2213 103.789C89.9125 103.305 87.6641 102.408 85.6139 101.061ZM96.3218 104.186C96.9851 103.443 97.6484 102.701 98.3204 101.968C98.3807 101.907 98.3979 101.829 98.3979 101.76C99.7935 101.829 101.198 101.786 102.585 101.605C101.973 102.313 101.37 103.012 100.758 103.72C99.3024 104.03 97.8121 104.186 96.3218 104.186Z" fill="#999999"/>
<path d="M96.5544 79.7521C97.1402 83.3597 97.6399 86.9932 98.0792 90.6266C95.9686 89.8154 94.194 88.141 92.7812 86.4235C92.5142 86.0956 92.0576 86.5616 92.3247 86.881C93.8839 88.7797 95.8566 90.549 98.1653 91.3343C98.2601 92.1197 98.3635 92.8965 98.4496 93.6819C98.4927 94.0961 99.1474 94.0961 99.1043 93.6819C99.0268 92.9655 98.932 92.2492 98.8459 91.5328C99.6901 91.74 100.569 91.8177 101.491 91.7141C102.645 91.5933 103.791 91.1704 104.773 90.5144C105.005 91.3775 105.238 92.2319 105.479 93.095C105.591 93.5006 106.22 93.328 106.108 92.9224C105.85 91.9816 105.6 91.0409 105.341 90.1002C106.28 89.3234 107.004 88.305 107.28 87.0708C107.96 84.076 105.97 81.1848 103.343 79.9592C103.058 79.8212 102.774 79.7176 102.49 79.6313C101.844 77.2406 101.189 74.8586 100.543 72.4679C101.62 72.8304 102.662 73.331 103.627 73.7798C104.006 73.9524 104.333 73.3914 103.954 73.2188C102.834 72.7096 101.611 72.1572 100.353 71.7775C99.983 70.4484 99.6212 69.1279 99.2594 67.7988C99.1474 67.3931 98.5185 67.5657 98.6305 67.9714C98.9579 69.171 99.2852 70.3707 99.6126 71.5703C98.3118 71.251 96.9938 71.1474 95.7274 71.4754C95.4862 70.2412 95.2536 69.0071 94.9952 67.7729C94.909 67.3586 94.2802 67.5399 94.3663 67.9455C94.6248 69.1883 94.8573 70.4311 95.0986 71.6739C94.7626 71.8034 94.4352 71.9501 94.1165 72.1486C92.385 73.2015 91.2909 75.4972 92.1524 77.465C92.9708 79.3378 94.7281 79.7003 96.5544 79.7521ZM100.982 91.1272C100.207 91.1617 99.4661 91.0582 98.7598 90.8597C98.3204 87.1485 97.8121 83.4546 97.2177 79.7694C98.0878 79.7694 98.9407 79.7262 99.6987 79.7694C100.371 79.8125 101.163 79.9679 101.973 80.2354C102.834 83.4115 103.705 86.5875 104.566 89.7549C103.601 90.5576 102.386 91.0668 100.982 91.1272ZM106.745 85.8021C106.53 87.1571 105.944 88.3395 105.091 89.2457C104.299 86.3372 103.506 83.4201 102.714 80.5116C104.997 81.4523 107.15 83.2561 106.745 85.8021ZM95.9514 72.3212C97.2177 71.8293 98.5185 71.9069 99.7935 72.2435C100.448 74.6342 101.094 77.0335 101.749 79.4242C100.698 79.1911 99.6471 79.1652 98.5013 79.1135C98.0361 79.148 97.5709 79.1566 97.1058 79.148C96.7267 76.8695 96.3218 74.591 95.8911 72.3212C95.9169 72.3298 95.9342 72.3212 95.9514 72.3212ZM95.2536 72.4334C95.6843 74.6601 96.0806 76.8954 96.451 79.1307C95.9772 79.0962 95.4948 79.053 95.021 78.9667C92.7726 75.1434 92.8501 72.9685 95.2536 72.4334Z" fill="#999999"/>
<path d="M91.3168 95.1144C91.6872 95.3129 92.0146 94.752 91.6441 94.5535C84.1581 90.5144 81.8752 81.7457 86.3462 74.5133C86.5701 74.1594 86.0016 73.8315 85.7862 74.1853C81.1343 81.7112 83.5292 90.92 91.3168 95.1144Z" fill="#999999"/>
<path d="M98.4152 96.7543C97.5192 96.6421 96.6319 96.5299 95.736 96.4177C95.3225 96.3659 95.3225 97.0218 95.736 97.0736C96.6319 97.1858 97.5192 97.298 98.4152 97.4102C98.8287 97.462 98.8287 96.8061 98.4152 96.7543Z" fill="#999999"/>
<path d="M107.952 71.5097C111.268 73.4343 113.482 76.5758 114.197 80.3388C114.275 80.753 114.903 80.5804 114.826 80.1662C114.076 76.2479 111.725 72.9424 108.279 70.9487C107.917 70.7416 107.59 71.3026 107.952 71.5097Z" fill="#999999"/>
<path d="M114.481 86.5443C114.412 86.9586 115.041 87.1312 115.11 86.7169C115.222 86.0438 115.334 85.3706 115.446 84.706C115.515 84.2918 114.886 84.1191 114.817 84.5334C114.705 85.198 114.593 85.8712 114.481 86.5443Z" fill="#999999"/>
</g>
<g clip-path="url(#clip3)">
<path d="M46.3038 102.849C44.6412 98.1196 40.9455 94.5724 37.1465 91.5086C32.3051 87.5989 24.5951 81.4453 29.2556 74.6617C29.6604 74.0662 29.2728 73.4966 28.7387 73.324C28.6439 73.2463 28.5319 73.1773 28.3941 73.1341C20.081 70.5018 11.7766 69.2331 3.08445 69.0001C2.71402 68.9914 2.47281 69.164 2.32636 69.3971C2.30052 69.423 2.27468 69.4489 2.25745 69.4747C-3.60909 77.9154 3.14475 86.7531 9.17496 92.855C12.0264 95.7376 15.455 98.2491 18.0221 101.408C20.529 104.489 22.8032 109.072 20.0207 112.619C18.4356 114.639 15.8857 115.821 13.6976 117.046C13.3013 117.271 13.1807 117.642 13.241 117.987C13.2583 118.35 13.465 118.695 13.9216 118.807C20.0466 120.292 25.8097 122.95 31.9347 124.434C32.107 124.477 32.262 124.469 32.4085 124.434C32.4257 124.434 32.4343 124.434 32.443 124.434C42.4186 122.648 49.8961 113.085 46.3038 102.849ZM45.2442 108.796C44.7963 116.304 39.1968 121.172 32.219 122.518C26.9382 121.206 21.9245 119.057 16.7127 117.556C19.6244 115.873 22.562 113.81 23.1909 110.349C24.0007 105.904 20.8391 101.382 17.8498 98.4217C11.1994 91.8538 -3.10944 81.5317 3.59271 70.9419C11.6043 71.1922 19.3057 72.3832 26.9727 74.7135C22.786 82.4033 31.28 89.1093 36.7589 93.6403C41.3504 97.4464 45.6233 102.452 45.2442 108.796Z" fill="#999999"/>
<path d="M34.1138 107.069C34.1224 107.069 34.131 107.061 34.1396 107.052C34.1568 107.044 34.1741 107.044 34.1999 107.035C42.065 102.383 32.0463 92.993 27.7734 90.0586C25.4647 88.4706 17.2636 83.8878 16.4625 89.5321C15.8681 93.7093 20.2529 98.6547 22.8459 101.382C25.4044 104.083 29.9615 108.485 34.1138 107.069ZM20.5372 97.5672C21.0713 97.3946 21.6054 97.222 22.1395 97.0494C22.1739 97.6362 22.3032 98.1972 22.5616 98.6978C22.217 98.7755 21.881 98.8532 21.5365 98.9308C21.1833 98.482 20.8473 98.016 20.5372 97.5672ZM22.0275 99.5695C22.3548 99.4918 22.6736 99.4228 23.0009 99.3451C23.0182 99.371 23.0354 99.3969 23.0526 99.4228C23.871 100.277 25.413 100.605 26.4726 100.01C27.1876 99.604 27.403 98.9999 27.3771 98.3353C28.6693 98.0333 29.9615 97.7398 31.2537 97.4377C31.2709 98.3008 31.1503 99.1725 31.047 100.001C30.9867 100.458 31.7103 100.458 31.762 100.001C32.0118 98.0419 32.2099 95.8411 30.9694 94.1581C31.202 93.9251 31.0125 93.4332 30.6335 93.554C30.5818 93.5712 30.5387 93.5885 30.487 93.5971C29.4963 92.6823 28.0663 92.363 26.8603 93.1311C26.0333 93.6489 25.7404 94.348 25.7662 95.1161C24.7928 95.4268 23.8193 95.7462 22.8459 96.0569C22.9062 95.3233 23.0612 94.5983 23.1905 94.0028C23.2852 93.554 22.5961 93.3555 22.5013 93.8129C22.3462 94.5638 22.1739 95.4268 22.1395 96.2899C21.4675 96.5056 20.7956 96.7214 20.1237 96.9372C19.5896 96.1259 19.133 95.3837 18.7884 94.7536C17.4273 92.268 15.601 87.8319 19.9514 87.5212C26.1625 87.0724 42.401 101.278 33.8725 106.379C29.8409 107.708 25.2321 103.6 22.0275 99.5695ZM26.5415 94.8831C26.5932 94.2444 26.9464 93.718 27.8768 93.4849C28.5401 93.321 29.1604 93.5108 29.6772 93.8733C28.6349 94.2099 27.5925 94.5465 26.5415 94.8831ZM30.2803 94.4343C30.3836 94.5551 30.4784 94.676 30.5559 94.8054C30.935 95.3923 31.1245 96.0396 31.202 96.7128C29.8926 97.0148 28.5746 97.3169 27.2652 97.619C27.179 97.2997 27.067 96.9803 26.9378 96.6783C26.7914 96.333 26.6708 95.9705 26.5932 95.6167C27.8251 95.2283 29.057 94.8313 30.2803 94.4343ZM26.6191 97.7743C25.5078 98.0333 24.4051 98.2835 23.2938 98.5425C22.9751 98.0505 22.8459 97.455 22.8286 96.8336C23.8452 96.5056 24.8617 96.1777 25.8782 95.8497C25.9385 96.1 26.016 96.3417 26.1108 96.5919C26.2486 96.9372 26.4812 97.3514 26.6191 97.7743ZM26.7138 98.4907C26.6794 98.8186 26.5157 99.1293 26.1108 99.3883C25.4647 99.7939 24.4826 99.5868 23.8538 99.1552C24.81 98.9308 25.7662 98.7064 26.7138 98.4907Z" fill="#999999"/>
<path d="M10.2944 84.8026C6.35756 82.645 4.6088 77.9241 6.15081 73.7123C6.31449 73.2808 5.6167 73.0909 5.46164 73.5225C3.81626 78.0276 5.73731 83.1197 9.93261 85.424C10.3375 85.6484 10.6993 85.027 10.2944 84.8026Z" fill="#999999"/>
<path d="M9.71722 80.427C8.48533 79.2705 8.26135 77.4322 9.1745 76.0081C9.42432 75.6198 8.80407 75.2573 8.55425 75.6456C7.46881 77.3286 7.75309 79.5726 9.20895 80.9362C9.54492 81.2555 10.0532 80.7463 9.71722 80.427Z" fill="#999999"/>
<path d="M31.9515 119.981C31.5122 120.128 31.7017 120.818 32.1411 120.671C37.8611 118.798 41.8239 113.698 42.2546 107.682C42.289 107.216 41.5654 107.225 41.5396 107.682C41.1347 113.361 37.3529 118.212 31.9515 119.981Z" fill="#999999"/>
<path d="M34.2257 117.202C35.6644 115.476 37.0944 113.75 38.533 112.023C38.8259 111.67 38.3177 111.16 38.0248 111.514C36.5861 113.24 35.1561 114.966 33.7175 116.693C33.4246 117.046 33.9328 117.556 34.2257 117.202Z" fill="#999999"/>
</g>
<g clip-path="url(#clip4)">
<path d="M198.932 139.799C198.889 139.661 198.795 139.523 198.648 139.402C196.029 137.262 193.298 135.268 190.731 133.059C190.499 132.852 190.232 132.791 189.982 132.826C189.922 132.826 189.861 132.809 189.792 132.817C180.635 134.146 173.399 141.923 168.454 149.224C165.37 153.772 159.796 162.36 162.062 168.349C162.071 168.522 162.14 168.695 162.277 168.859C162.381 169.04 162.527 169.161 162.682 169.212C164.741 170.956 166.826 172.63 168.971 174.27C169.315 174.641 169.746 174.96 170.289 175.193C173.528 176.557 177.456 173.631 179.834 171.81C187.699 165.786 195.245 156.534 198.631 147.127C199.38 145.056 200.38 141.802 198.932 139.799ZM188.474 140.49C187.949 140.801 187.441 141.129 186.941 141.457C185.364 140.222 183.788 138.988 182.212 137.763C183.116 137.193 184.055 136.692 185.028 136.252C186.648 137.426 188.276 138.591 189.896 139.765C189.387 140.007 188.905 140.257 188.474 140.49ZM190.645 139.411C189.026 138.246 187.406 137.072 185.787 135.907C186.295 135.7 186.812 135.519 187.329 135.355C188.819 136.554 190.309 137.745 191.8 138.945C191.403 139.092 191.016 139.247 190.645 139.411ZM192.592 138.669C191.119 137.486 189.646 136.304 188.173 135.122C188.707 134.975 189.25 134.863 189.792 134.759C191.231 135.976 192.704 137.133 194.186 138.289C193.66 138.375 193.126 138.505 192.592 138.669ZM177.835 141.094C177.861 141.154 177.896 141.206 177.956 141.258C178.473 141.621 178.981 141.992 179.498 142.354C179.877 142.622 180.239 142 179.86 141.733C179.351 141.37 178.852 141.008 178.344 140.654C179.369 139.756 180.446 138.919 181.574 138.168C183.159 139.402 184.744 140.645 186.321 141.879C185.166 142.665 184.064 143.502 183.013 144.382C182.746 144.167 182.479 143.951 182.212 143.744C181.858 143.459 181.341 143.959 181.703 144.253C181.953 144.46 182.212 144.658 182.461 144.866C180.101 146.937 177.99 149.276 176.121 151.943C174.648 150.614 173.183 149.284 171.71 147.947C173.511 145.539 175.552 143.165 177.835 141.094ZM170.694 149.345C170.892 149.069 171.09 148.793 171.297 148.516C172.761 149.837 174.226 151.166 175.682 152.486C175.699 152.495 175.708 152.504 175.725 152.512C174.234 154.67 172.675 157.104 171.323 159.658C169.729 158.355 168.135 157.043 166.542 155.74C167.972 153.203 169.591 150.907 170.694 149.345ZM163.363 164.725C164.922 165.976 166.481 167.227 168.032 168.479C168.006 168.643 167.972 168.798 167.946 168.962C167.929 169.074 167.911 169.195 167.894 169.307C166.387 168.099 164.879 166.882 163.371 165.674C163.346 165.363 163.346 165.044 163.363 164.725ZM163.957 161.488C165.516 162.998 167.076 164.509 168.635 166.011C168.463 166.572 168.316 167.124 168.196 167.685C166.688 166.477 165.189 165.268 163.682 164.06C163.604 163.991 163.509 163.974 163.423 163.982C163.509 163.171 163.699 162.334 163.957 161.488ZM168.876 165.251C167.317 163.741 165.758 162.239 164.207 160.729C164.715 159.27 165.413 157.794 166.188 156.379C167.791 157.691 169.384 159.003 170.987 160.314C170.16 161.928 169.436 163.594 168.876 165.251ZM163.845 167.685C163.707 167.366 163.604 167.038 163.526 166.701C164.956 167.849 166.395 169.005 167.825 170.153C167.808 170.412 167.808 170.68 167.817 170.939C166.481 169.886 165.155 168.807 163.845 167.685ZM194.022 152.288C190.413 158.519 185.7 164.431 180.187 169.074C178.171 170.775 173.692 174.865 170.926 173.096C167.489 170.904 171.659 163.801 172.959 161.169C176.836 153.332 181.867 146.661 189.448 142.147C192.316 140.602 197.864 138.539 197.58 143.899C197.425 146.713 195.392 149.923 194.022 152.288Z" fill="#999999"/>
<path d="M176.862 169.497C176.121 170.153 175.354 170.861 174.389 171.154C173.244 171.5 171.771 171.154 171.624 169.739C171.581 169.325 170.926 169.325 170.969 169.739C171.09 170.904 171.926 171.75 173.089 171.922C174.76 172.164 176.155 170.99 177.318 169.963C177.637 169.679 177.181 169.221 176.862 169.497Z" fill="#999999"/>
<path d="M190.369 143.424C190.051 143.692 190.507 144.149 190.826 143.882C191.438 143.372 192.101 142.958 192.85 142.682C193.591 142.406 195.452 141.81 195.762 143.01C195.866 143.416 196.494 143.243 196.391 142.837C195.711 140.196 191.567 142.414 190.369 143.424Z" fill="#999999"/>
<path d="M182.143 152.789C181.35 152.625 180.549 152.461 179.756 152.297C179.352 152.21 179.171 152.84 179.584 152.927C180.239 153.065 180.902 153.194 181.557 153.332C180.738 154.109 180.058 154.868 179.584 155.481C178.671 155.378 177.758 155.283 176.845 155.179C176.431 155.136 176.431 155.783 176.845 155.835C177.611 155.921 178.378 156.008 179.145 156.085C177.999 157.708 175.966 160.824 177.155 162.765C178.68 165.268 182.97 162.765 184.796 162.135C185.192 161.997 185.02 161.367 184.624 161.505C183.314 161.954 181.462 163.05 180.075 163.05C175.458 163.042 178.645 157.932 179.903 156.172C181.643 156.362 183.392 156.56 185.132 156.75C185.545 156.793 185.545 156.146 185.132 156.094C183.538 155.921 181.945 155.74 180.351 155.568C180.807 154.998 181.497 154.256 182.315 153.496C184.46 153.936 186.605 154.385 188.75 154.825C189.155 154.912 189.336 154.282 188.922 154.195C186.915 153.781 184.917 153.367 182.909 152.953C185.985 150.26 190.413 147.714 192.11 151.667C192.273 152.055 192.833 151.718 192.67 151.339C190.688 146.713 185.563 149.707 182.143 152.789Z" fill="#999999"/>
</g>
<g clip-path="url(#clip5)">
<path d="M221.434 212.653C221.316 212.351 221.044 212.122 220.62 212.193C210.316 213.808 199.788 213.149 190.088 209.059C180.35 204.957 172.356 197.919 165.909 189.649C165.619 189.278 165.199 189.25 164.87 189.402C164.82 189.42 164.771 189.421 164.716 189.449C156.731 193.66 149.042 198.412 141.059 202.631C140.609 202.876 140.595 203.308 140.799 203.644C140.82 203.702 140.827 203.765 140.858 203.828C147.07 214.684 155.146 224.53 165.601 231.546C175.804 238.383 187.535 242.033 199.684 243.146C199.828 243.16 199.959 243.137 200.074 243.095C200.224 243.057 200.368 242.981 200.493 242.853C208.872 234.178 216.353 224.408 221.451 213.418C221.591 213.129 221.559 212.862 221.434 212.653ZM165.859 229.648C156.171 222.945 148.647 213.785 142.743 203.661C150.24 199.66 157.498 195.228 164.988 191.229C171.529 199.465 179.603 206.498 189.36 210.609C198.847 214.606 209.118 215.48 219.213 214.122C214.268 224.252 207.292 233.298 199.508 241.406C187.497 240.243 175.857 236.575 165.859 229.648Z" fill="#999999"/>
<path d="M169.884 210.304C163.948 213.405 163.117 221.202 167.495 226.014C172.214 231.202 182.3 232.488 187.645 227.789C187.653 227.787 187.657 227.777 187.662 227.767C187.674 227.754 187.695 227.746 187.707 227.734C191.527 223.292 190.188 217.281 186.319 213.261C182.282 209.047 175.118 207.565 169.884 210.304ZM187.235 227.29C182.545 231.366 174.066 230.606 169.326 226.819C163.16 221.883 164.461 212.432 172.146 210.092C181.331 207.292 195.172 218.011 187.235 227.29Z" fill="#999999"/>
<path d="M162.776 207.695C165.142 206.625 165.213 203.721 163.698 201.874C163.685 201.862 163.675 201.858 163.663 201.846C163.65 201.834 163.655 201.824 163.642 201.812C161.952 200.136 158.77 198.877 156.79 200.758C155.368 202.109 155.686 204.283 156.685 205.791C157.957 207.733 160.614 208.674 162.776 207.695ZM157.047 205.168C156.319 203.889 156.125 202.098 157.4 201.087C159.163 199.686 161.786 200.893 163.198 202.276C164.835 204.3 164.066 207.195 161.249 207.411C159.499 207.544 157.9 206.679 157.047 205.168Z" fill="#999999"/>
<path d="M202.811 229.82C204.304 228.533 205.25 226.64 203.742 224.947C202.315 223.34 199.607 222.778 197.634 223.534C195.566 224.323 194.999 226.784 196.071 228.626C197.432 230.971 200.732 231.343 202.811 229.82ZM198.57 223.949C200.022 223.669 201.719 224.039 202.868 224.993C204.507 226.351 203.865 228.068 202.44 229.298C200.691 230.579 197.884 230.348 196.672 228.392C195.522 226.537 196.436 224.353 198.57 223.949Z" fill="#999999"/>
<path d="M147.042 205.427C146.811 205.084 146.291 205.453 146.522 205.796C149.504 210.277 153.025 214.243 157.12 217.738C157.439 218.008 157.849 217.516 157.53 217.246C153.472 213.786 149.988 209.856 147.042 205.427Z" fill="#999999"/>
<path d="M151.131 206.325C150.943 205.967 150.341 206.177 150.531 206.543C151.705 208.799 153.309 210.687 155.376 212.186C155.709 212.427 156.118 211.934 155.785 211.694C153.82 210.273 152.253 208.486 151.131 206.325Z" fill="#999999"/>
<path d="M196.386 238.313C191.206 237.63 186.225 236.193 181.47 234.003C181.095 233.827 180.824 234.409 181.199 234.585C186.004 236.798 191.034 238.258 196.272 238.945C196.678 239.003 196.791 238.371 196.386 238.313Z" fill="#999999"/>
<path d="M193.847 235.361C191.891 235.29 190.016 234.812 188.252 233.966C187.877 233.79 187.607 234.372 187.982 234.548C189.854 235.445 191.829 235.927 193.894 236.008C194.308 236.022 194.253 235.378 193.847 235.361Z" fill="#999999"/>
<path d="M211.767 218.13C212.183 218.102 212.128 217.458 211.715 217.492C206.739 217.818 201.864 217.344 197.033 216.091C196.635 215.989 196.522 216.62 196.919 216.723C201.795 217.984 206.75 218.454 211.767 218.13Z" fill="#999999"/>
<path d="M173.075 202.744C173.441 202.939 173.711 202.358 173.346 202.162C169.995 200.373 167.175 197.95 164.898 194.911C164.648 194.584 164.128 194.952 164.378 195.28C166.711 198.405 169.634 200.906 173.075 202.744Z" fill="#999999"/>
<path d="M181.769 213.071C181.444 213.303 181.14 213.545 180.815 213.777C179.271 213.04 177.764 213.012 176.804 214.729C176.364 215.52 176.368 216.273 176.624 216.976C174.714 218.488 172.846 220.05 171.02 221.662C170.757 220.937 170.588 220.161 170.539 219.351C170.51 218.935 169.866 218.988 169.903 219.401C169.971 220.352 170.177 221.278 170.506 222.135C169.858 222.714 169.215 223.283 168.577 223.867C168.279 224.147 168.649 224.669 168.947 224.389C169.547 223.835 170.159 223.294 170.772 222.752C171.315 223.884 172.117 224.873 173.148 225.616C172.736 226.035 172.328 226.462 171.916 226.882C171.63 227.174 172.124 227.586 172.41 227.293C172.837 226.851 173.268 226.417 173.696 225.975C174.124 226.23 174.588 226.447 175.084 226.62C177.037 227.291 179.912 227.325 181.498 225.775C183.108 224.2 182.329 222.152 180.952 220.707C180.596 220.336 180.195 220.021 179.8 219.722C180.937 218.556 182.067 217.392 183.204 216.226C184.048 216.97 184.847 217.796 185.563 218.595C185.837 218.897 186.367 218.533 186.083 218.226C185.588 217.675 184.702 216.701 183.651 215.769C184.039 215.374 184.419 214.982 184.807 214.587C185.093 214.295 184.6 213.883 184.313 214.176C183.933 214.568 183.552 214.96 183.165 215.354C182.614 214.898 182.042 214.473 181.458 214.127C181.692 213.96 181.92 213.779 182.154 213.613C182.477 213.356 182.105 212.827 181.769 213.071ZM179.082 214.069C179.464 214.086 179.826 214.16 180.172 214.256C179.174 214.995 178.181 215.748 177.207 216.511C177.165 215.722 177.784 214.907 179.082 214.069ZM171.272 222.284C173.109 220.66 174.981 219.088 176.904 217.563C177.38 218.4 178.151 219.146 178.833 219.76C177.095 221.546 175.355 223.324 173.61 225.112C172.595 224.413 171.806 223.436 171.272 222.284ZM179.886 225.997C179.043 226.466 177.764 226.413 176.851 226.309C175.855 226.202 174.961 225.902 174.173 225.466C175.887 223.705 177.603 221.952 179.317 220.192C180.87 221.491 183.934 223.753 179.886 225.997ZM181.77 215.096C182.085 215.31 182.401 215.549 182.705 215.799C181.561 216.968 180.419 218.144 179.275 219.313C178.787 218.916 178.322 218.493 177.991 217.9C177.724 217.66 177.544 217.414 177.406 217.168C178.551 216.27 179.703 215.394 180.878 214.534C181.194 214.682 181.496 214.859 181.77 215.096Z" fill="#999999"/>
</g>
<g clip-path="url(#clip6)">
<path d="M92.9534 35.8591C87.4745 24.9933 75.3366 23.1291 64.4219 21.9553C49.4411 20.3328 35.8559 14.5071 28.6111 0.482455C28.4302 0.119971 28.1286 -0.00948778 27.8271 -0.000857215C27.5859 -0.0267489 27.3275 0.0509262 27.1121 0.283952C18.2649 9.44961 9.84849 18.995 2.19012 29.1791C1.90584 29.5588 1.97475 29.9386 2.21596 30.1975C7.48809 40.4161 16.8263 48.175 28.008 51.0231C40.9644 54.3199 59.0809 51.4114 66.2827 65.626C66.4722 65.9971 66.7909 66.1352 67.101 66.1007C67.4198 66.1352 67.7471 66.0057 67.9367 65.626C73.6654 54.1732 82.1249 44.4897 92.6088 37.1624C92.807 37.0243 92.9276 36.8517 92.9879 36.6618C93.0913 36.4374 93.0999 36.1526 92.9534 35.8591ZM67.0752 63.1404C61.2345 53.6726 49.467 51.9724 39.1553 50.8591C31.5486 50.0392 24.433 48.7273 17.8514 44.6019C11.9935 40.9339 7.39333 35.816 4.15424 29.7401C11.3733 20.186 19.2901 11.2016 27.5773 2.57105C33.0217 12.2977 42.4892 19.3748 53.2746 22.1193C66.0673 25.373 83.4171 22.6285 90.8773 36.0577C80.9447 43.1779 72.7953 52.3349 67.0752 63.1404Z" fill="#999999"/>
<path d="M59.1233 30.9145C59.1233 30.9059 59.1147 30.8973 59.1061 30.8886C59.0975 30.8714 59.0975 30.8455 59.0889 30.8282C56.0221 25.529 47.2266 22.7327 41.3945 23.3196C34.2702 24.0446 28.9895 30.6383 31.6428 37.6809C33.8309 43.4892 40.1885 47.8995 46.4254 47.3212C53.989 46.6394 62.0092 38.8546 59.1233 30.9145ZM45.0902 46.6739C39.3442 46.6049 33.5552 42.0479 32.0046 36.5158C27.7318 21.2138 52.7055 21.3173 58.4428 31.1648C61.277 39.1222 52.6107 46.7775 45.0902 46.6739Z" fill="#999999"/>
<path d="M49.5611 29.3611C49.8023 28.8864 50.0435 28.4117 50.2847 27.9284C50.4914 27.5142 49.8712 27.1517 49.6645 27.5659C49.4232 28.0406 49.182 28.5153 48.9408 28.9986C48.2689 28.6534 47.5194 28.4117 46.7613 28.2909C46.8906 28.0838 47.0112 27.8766 47.1404 27.6695C47.3902 27.2811 46.7699 26.9186 46.5201 27.307C46.3306 27.6091 46.1497 27.9112 45.9688 28.2132C44.0133 28.1356 42.2128 28.9468 41.851 31.0268C41.6615 32.1401 42.1439 32.9169 42.8934 33.4434C42.0061 35.0573 41.1705 36.6884 40.3607 38.3455C39.2063 37.6292 38.2846 36.6194 37.9055 35.2817C37.7763 34.8329 37.0872 35.0227 37.2164 35.4715C37.5954 36.8093 38.6895 38.0348 40.0764 38.941C39.8094 39.502 39.5251 40.063 39.2666 40.6326C39.0771 41.0469 39.6974 41.418 39.8869 40.9951C40.1453 40.4341 40.421 39.8818 40.6881 39.3208C41.4806 39.7609 42.3507 40.0889 43.2207 40.2874C42.8503 41.0124 42.4885 41.7373 42.1181 42.4623C41.9113 42.8766 42.5316 43.239 42.7383 42.8248C43.1432 42.0221 43.5567 41.2109 43.9616 40.4082C45.8999 40.6671 47.7865 40.2183 48.9322 38.6648C49.9229 37.3098 49.854 35.4715 48.467 34.4445C48.088 34.1597 47.6745 34.0216 47.2438 33.9267C47.9329 32.5717 48.6135 31.2167 49.3026 29.8617C49.8626 30.2673 50.3192 30.8283 50.5862 31.5791C50.7413 32.0107 51.4391 31.8294 51.2754 31.3893C50.9911 30.5866 50.3622 29.8962 49.5611 29.3611ZM44.5991 29.1885C44.8834 29.1453 45.1676 29.1108 45.4433 29.0677C44.7714 30.1637 44.1253 31.2684 43.4878 32.3904C43.3844 31.6655 43.7376 30.6039 44.5991 29.1885ZM40.9896 38.6994C41.7907 37.0509 42.6349 35.4197 43.5136 33.8058C43.8754 33.9784 44.2803 34.0993 44.6766 34.1942C45.1418 34.2978 45.7017 34.3064 46.21 34.3841C45.3485 36.0929 44.4785 37.8018 43.617 39.5106C42.7211 39.3725 41.8166 39.105 40.9896 38.6994ZM45.3916 39.6228C45.1246 39.6142 44.8489 39.6142 44.5818 39.6056C44.5129 39.6056 44.444 39.5969 44.3751 39.5883C45.2107 37.9399 46.0463 36.2914 46.8733 34.643C48.8202 37.9054 48.3292 39.5624 45.3916 39.6228ZM46.5029 33.8145C45.9516 33.7454 45.3916 33.6936 44.8747 33.5038C44.4526 33.452 44.1339 33.3225 43.9013 33.1327C44.6852 31.7345 45.495 30.3536 46.3392 28.99C47.1576 29.0072 47.976 29.154 48.691 29.4992C47.9588 30.9405 47.2265 32.3732 46.5029 33.8145Z" fill="#999999"/>
<path d="M26.362 41.8667C19.5048 39.338 13.8019 34.8415 9.73582 28.7483C9.47738 28.3685 8.85713 28.7224 9.11557 29.1108C13.285 35.3593 19.1257 39.9594 26.1725 42.5572C26.6032 42.7212 26.7927 42.0307 26.362 41.8667Z" fill="#999999"/>
<path d="M22.7095 36.3951C23.1488 36.5418 23.3384 35.8514 22.899 35.7047C19.1517 34.4187 15.9384 32.123 13.5177 28.9814C13.2421 28.619 12.6132 28.9814 12.8975 29.3439C15.4474 32.6408 18.764 35.0401 22.7095 36.3951Z" fill="#999999"/>
<path d="M37.4232 17.6408C33.0556 15.604 29.4805 12.4279 26.9737 8.30249C26.7325 7.90549 26.1122 8.26797 26.3534 8.66498C28.9206 12.8853 32.5818 16.1736 37.0614 18.2535C37.4749 18.452 37.8367 17.8306 37.4232 17.6408Z" fill="#999999"/>
<path d="M86.8795 33.124C81.3318 29.6891 75.224 27.868 68.7028 27.6954C68.2376 27.6868 68.2376 28.4031 68.7028 28.4117C75.1206 28.5757 81.0561 30.3536 86.5177 33.7368C86.9054 33.9957 87.2672 33.3657 86.8795 33.124Z" fill="#999999"/>
<path d="M80.1084 34.3754C77.7653 32.8909 75.2498 31.838 72.5534 31.2166C72.1055 31.113 71.9073 31.8035 72.3639 31.9071C75.0086 32.5198 77.4551 33.5469 79.7466 34.9968C80.1429 35.2471 80.5047 34.6257 80.1084 34.3754Z" fill="#999999"/>
<path d="M53.7909 49.4186C53.3343 49.3582 53.3343 50.0832 53.7909 50.1349C58.348 50.7132 62.5261 52.353 66.2821 55.0026C66.6611 55.2701 67.0229 54.6487 66.6439 54.3812C62.7673 51.6626 58.4773 50.0141 53.7909 49.4186Z" fill="#999999"/>
<path d="M59.6833 49.2544C61.7508 49.4875 63.6288 50.2556 65.2828 51.507C65.6532 51.7832 66.0064 51.1618 65.6446 50.8856C63.8786 49.5479 61.88 48.7797 59.6833 48.5295C59.2181 48.4863 59.2267 49.2026 59.6833 49.2544Z" fill="#999999"/>
<path d="M72.5535 38.1557C72.5449 38.1384 72.5449 38.1211 72.5363 38.0952C70.3137 33.849 63.1033 36.1102 63.8097 40.8829C64.1974 43.4635 66.9885 45.1809 69.4867 44.6027C72.2692 43.9554 73.6131 40.7189 72.5708 38.1816C72.5621 38.1729 72.5535 38.1643 72.5535 38.1557ZM68.608 43.9986C66.4458 44.0676 64.2577 42.2638 64.4903 39.9853C64.8521 36.3432 70.1931 35.2385 71.8988 38.4405C72.8378 40.8484 71.4078 43.9122 68.608 43.9986Z" fill="#999999"/>
<path d="M21.2709 18.4866C21.2192 18.5298 21.1933 18.5729 21.1675 18.6161C21.1158 18.6333 21.0727 18.6592 21.0296 18.711C19.4273 20.4975 19.2809 23.4319 21.021 25.2012C22.7095 26.9187 25.7504 26.9791 27.4992 25.322C29.2393 23.6736 29.3599 20.6097 27.7404 18.8318C26.0606 17.0022 23.1574 16.9849 21.2709 18.4866ZM26.9996 24.8128C25.5351 26.1851 22.9421 26.1333 21.5379 24.692C20.0907 23.2075 20.194 20.7219 21.5465 19.2202C21.5896 19.1684 21.6154 19.1166 21.6241 19.0649C21.6757 19.0562 21.736 19.0303 21.7791 18.9958C23.3556 17.7444 25.8538 17.8048 27.2321 19.3497C28.576 20.8514 28.464 23.4406 26.9996 24.8128Z" fill="#999999"/>
</g>
<defs>
<clipPath id="clip0">
<rect width="118" height="111" fill="white" transform="translate(29 121)"/>
</clipPath>
<clipPath id="clip1">
<rect width="66.8233" height="46.4066" fill="white" transform="translate(199.91 128.087) rotate(166.305)"/>
</clipPath>
<clipPath id="clip2">
<rect width="43.4778" height="43.0924" fill="white" transform="translate(76 63)"/>
</clipPath>
<clipPath id="clip3">
<rect width="47.2166" height="55.46" fill="white" transform="translate(0 69)"/>
</clipPath>
<clipPath id="clip4">
<rect width="38.1368" height="42.73" fill="white" transform="translate(161.536 132.809)"/>
</clipPath>
<clipPath id="clip5">
<rect width="72.7113" height="62.4939" fill="white" transform="matrix(0.940278 -0.340406 0.342288 0.939595 139 198.751)"/>
</clipPath>
<clipPath id="clip6">
<rect width="91.0648" height="66.1188" fill="white" transform="translate(2)"/>
</clipPath>
</defs>
</svg>
