<svg width="52" height="52" viewBox="0 0 52 52" fill="none" xmlns="http://www.w3.org/2000/svg">
<path d="M26 45.5C36.7696 45.5 45.5 36.7696 45.5 26C45.5 15.2304 36.7696 6.5 26 6.5C15.2304 6.5 6.5 15.2304 6.5 26C6.5 36.7696 15.2304 45.5 26 45.5Z" stroke="#D6331D" stroke-width="2" stroke-miterlimit="10"/>
<path d="M26 32.5C30.4873 32.5 34.125 28.8623 34.125 24.375C34.125 19.8877 30.4873 16.25 26 16.25C21.5127 16.25 17.875 19.8877 17.875 24.375C17.875 28.8623 21.5127 32.5 26 32.5Z" stroke="#D6331D" stroke-width="2" stroke-miterlimit="10"/>
<path d="M12.9591 40.4979C14.1832 38.0913 16.0493 36.0703 18.3509 34.6587C20.6525 33.2471 23.2999 32.5 25.9999 32.5C28.6999 32.5 31.3473 33.2471 33.6489 34.6587C35.9505 36.0703 37.8167 38.0912 39.0407 40.4978" stroke="#D6331D" stroke-width="2" stroke-linecap="round" stroke-linejoin="round"/>
</svg>
